<?xml version="1.0" encoding="utf-8"?>
<!-- Generator: Adobe Illustrator 14.0.0, SVG Export Plug-In . SVG Version: 6.00 Build 43363)  -->
<!DOCTYPE svg PUBLIC "-//W3C//DTD SVG 1.1//EN" "http://www.w3.org/Graphics/SVG/1.1/DTD/svg11.dtd">
<svg version="1.1" id="Layer_1" xmlns="http://www.w3.org/2000/svg" xmlns:xlink="http://www.w3.org/1999/xlink" x="0px" y="0px"
	 width="259px" height="70px" viewBox="0 0 259 70" enable-background="new 0 0 259 70" xml:space="preserve">
<g>
	<g>
		<path fill="#004B8D" d="M6.921,19.797c-0.336-0.336-0.28-1.12,0.168-1.345c1.512,0.112,4.032,0.169,5.768,0.169
			c1.568,0,4.424-0.057,6.384-0.169c0.504,0.169,0.448,0.953,0.112,1.345l-1.288,0.112c-1.176,0.111-1.848,0.447-1.848,0.951
			c0,0.673,1.176,3.528,2.912,7.504c3.135,7,6.44,14,9.688,20.888c1.344-2.8,2.855-5.936,4.313-9.071
			c0.504-1.063,0.896-2.016,0.896-2.296s-0.168-0.784-0.448-1.456c-1.96-4.48-4.032-8.96-6.16-13.439
			c-0.84-1.736-1.68-2.912-3.584-3.08l-1.344-0.112c-0.392-0.448-0.336-1.12,0.112-1.345c1.624,0.112,3.752,0.169,5.992,0.169
			c2.8,0,4.871-0.057,6.159-0.169c0.393,0.169,0.448,0.896,0.112,1.345l-1.456,0.112c-2.184,0.168-2.24,0.56-1.176,3.08
			c1.176,2.743,2.744,6.271,4.312,9.743c1.064-2.184,2.072-4.312,3.304-7.336c2.017-4.76,1.736-5.376-0.056-5.487l-1.68-0.112
			c-0.392-0.561-0.28-1.176,0.112-1.345c1.512,0.112,3.191,0.169,5.264,0.169c1.848,0,4.088-0.057,5.376-0.169
			c0.392,0.169,0.448,0.896,0.112,1.345l-1.625,0.112c-2.352,0.168-3.359,2.688-4.592,4.983c-1.176,2.072-3.527,6.944-4.367,8.904
			c-0.28,0.56-0.504,1.119-0.504,1.344c0,0.224,0.111,0.672,0.392,1.345c1.904,4.312,3.864,8.512,5.712,12.767
			c1.736-3.92,3.416-7.84,5.04-11.815c1.12-2.688,4.088-10.136,4.479-11.144c0.729-2.016,1.681-4.424,1.681-5.096
			c0-0.785-0.672-1.232-1.849-1.288l-1.623-0.112c-0.449-0.504-0.393-1.12,0.056-1.345c2.128,0.112,3.64,0.169,5.376,0.169
			c2.128,0,3.752-0.057,5.208-0.169c0.448,0.169,0.504,0.896,0.111,1.345l-1.063,0.112c-2.8,0.279-3.304,1.96-6.664,9.743
			l-4.088,9.465c-2.464,5.711-4.704,11.199-7,17.191c-0.168,0.111-0.393,0.168-0.672,0.168c-0.28,0-0.561-0.057-0.784-0.168
			c-1.792-4.984-5.04-11.984-6.776-15.903c-2.016,4.088-5.376,11.255-7,15.903c-0.168,0.111-0.392,0.168-0.672,0.168
			s-0.56-0.057-0.84-0.168c-0.952-2.353-3.136-7.393-3.864-9.016c-3.583-7.784-7.056-15.568-10.695-23.352
			c-1.064-2.297-1.736-3.809-4.088-4.032L6.921,19.797z"/>
		<path fill="#004B8D" d="M77.519,44.324c0,7-4.815,12.04-11.815,12.04c-6.44,0-11.464-4.536-11.464-11.536
			c0-7.056,5.304-12.096,11.911-12.096C72.423,32.732,77.519,37.437,77.519,44.324z M65.479,34.412
			c-3.695,0-6.439,3.528-6.439,9.688c0,5.097,2.296,10.584,7.224,10.584s6.44-5.151,6.44-9.464
			C72.703,40.46,70.799,34.412,65.479,34.412z"/>
		<path fill="#004B8D" d="M82.78,39.509c0-2.185,0-2.465-1.512-3.472l-0.505-0.336c-0.224-0.225-0.224-0.841,0.057-1.008
			c1.288-0.449,4.256-1.904,5.655-2.745c0.28,0.057,0.448,0.169,0.448,0.393v3.248c0,0.28,0.057,0.448,0.168,0.504
			c1.96-1.624,4.088-3.36,6.16-3.36c1.4,0,2.521,0.896,2.521,2.24c0,1.848-1.513,2.576-2.408,2.576c-0.561,0-0.84-0.168-1.232-0.393
			c-0.84-0.56-1.68-0.896-2.464-0.896c-0.896,0-1.568,0.504-2.016,1.12c-0.561,0.784-0.729,2.408-0.729,4.312v7.616
			c0,4.032,0.112,4.704,2.24,4.872l2.016,0.168c0.393,0.28,0.28,1.232-0.111,1.399c-2.632-0.111-4.256-0.167-6.216-0.167
			c-2.017,0-3.696,0.056-5.152,0.167c-0.393-0.167-0.504-1.119-0.112-1.399l1.064-0.168c2.071-0.336,2.128-0.84,2.128-4.872V39.509z
			"/>
		<path fill="#004B8D" d="M99.355,23.997c0-3.304-0.056-3.641-1.736-4.648l-0.56-0.336c-0.28-0.168-0.28-0.952,0-1.12
			c1.399-0.447,4.032-1.288,6.048-2.353c0.224,0,0.448,0.112,0.56,0.337c-0.056,1.68-0.168,4.479-0.168,6.943v19.209
			c0,0.728,0.057,0.84,1.009,0.84c1.231,0,2.296-0.617,3.808-2.185l2.296-2.464c1.568-1.681,1.96-2.296,1.96-2.576
			s-0.28-0.447-1.231-0.56l-1.345-0.169c-0.504-0.168-0.504-1.231,0-1.399h1.288c2.464,0,5.769-0.111,8.904-0.448
			c0.392,0.168,0.448,1.12,0.112,1.4l-1.792,0.336c-1.12,0.225-2.072,0.784-3.528,1.96c-2.185,1.736-4.088,3.752-5.096,4.704
			c-0.673,0.616-0.729,0.896-0.393,1.344c0.952,1.288,1.849,2.353,3.752,4.48c2.185,2.464,4.145,4.647,5.265,5.712
			c0.783,0.728,1.903,1.063,2.911,1.231l0.784,0.112c0.393,0.28,0.336,1.232-0.111,1.399c-1.624-0.111-3.528-0.167-5.32-0.167
			c-2.24,0-4.2,0.056-5.824,0.167c-0.448-0.224-0.504-1.175-0.112-1.399l1.009-0.168c0.84-0.112,1.399-0.225,1.399-0.56
			c0-0.336-0.224-0.729-0.952-1.568l-5.991-6.944c-0.504-0.56-1.12-0.784-1.736-0.784c-1.008,0-1.064,0.169-1.064,1.904v3.08
			c0,4.032,0.112,4.592,2.128,4.872l1.345,0.168c0.392,0.28,0.279,1.232-0.112,1.399c-1.848-0.111-3.472-0.167-5.432-0.167
			c-2.017,0-3.696,0.056-5.376,0.167c-0.393-0.167-0.504-1.119-0.057-1.399l1.232-0.168c2.072-0.28,2.128-0.84,2.128-4.872V23.997z"
			/>
		<path fill="#FDB913" d="M127.467,25.901c0-4.145-0.224-5.208-2.743-5.433l-1.792-0.168c-0.448-0.336-0.393-1.176,0.056-1.399
			c3.023-0.28,6.832-0.449,12.04-0.449c3.527,0,6.888,0.28,9.407,1.568c2.408,1.177,4.257,3.416,4.257,7
			c0,4.032-2.353,6.104-5.712,7.673c0,0.559,0.447,0.728,1.063,0.84c3.024,0.56,7.504,3.359,7.504,9.352
			c0,6.496-4.815,10.863-14.896,10.863c-1.624,0-4.368-0.167-6.721-0.167c-2.464,0-4.367,0.111-6.439,0.167
			c-0.336-0.167-0.448-1.063-0.112-1.399l1.008-0.168c2.969-0.504,3.08-1.12,3.08-7V25.901z M132.06,33.349
			c0,1.567,0.056,1.681,2.911,1.567c5.712-0.223,8.792-1.903,8.792-7.168c0-5.487-4.088-7.56-8.344-7.56
			c-1.231,0-2.072,0.112-2.576,0.337c-0.56,0.168-0.783,0.447-0.783,1.455V33.349z M132.06,46.341c0,2.016,0.111,4.872,1.176,6.104
			c1.063,1.288,2.744,1.568,4.424,1.568c4.984,0,8.792-2.24,8.792-7.84c0-4.425-2.24-9.576-11.145-9.576
			c-3.023,0-3.247,0.336-3.247,1.456V46.341z"/>
		<path fill="#FDB913" d="M162.579,22.485c4.088-3.192,9.296-4.761,15.12-4.761c3.023,0,7.279,0.616,9.911,1.344
			c0.673,0.168,1.064,0.28,1.568,0.225c0.056,1.288,0.336,4.816,0.784,8.232c-0.28,0.391-1.12,0.447-1.512,0.111
			c-0.841-3.809-3.36-8.176-11.48-8.176c-8.567,0-15.848,5.432-15.848,17.024c0,11.759,7.448,18.255,16.632,18.255
			c7.224,0,10.416-4.703,11.704-8.008c0.392-0.28,1.231-0.168,1.456,0.224c-0.393,2.913-1.849,6.608-2.688,7.673
			c-0.672,0.111-1.344,0.336-1.96,0.56c-1.231,0.448-5.264,1.288-8.848,1.288c-5.04,0-9.856-1.008-13.944-3.752
			c-4.479-3.08-7.952-8.176-7.952-15.4C155.522,31.109,158.323,25.789,162.579,22.485z"/>
	</g>
</g>
<g>
	<path fill="#004B8D" d="M194.489,53.306c0-1.951,1.377-3.386,3.213-3.386c1.951,0,3.213,1.55,3.213,3.386s-1.262,3.155-3.213,3.155
		C196.039,56.461,194.489,55.256,194.489,53.306z"/>
	<path fill="#004B8D" d="M222.487,33.225c0.459,0.402,0.86,1.32,0.86,2.295c0,1.033-0.573,2.123-1.263,2.123
		c-0.287,0-0.573-0.115-0.803-0.401c-1.262-1.55-3.385-3.041-5.737-3.041c-4.017,0-7.917,3.155-7.917,9.237
		c0,4.475,3.098,9.811,9.236,9.811c3.328,0,5.049-1.492,6.369-3.442c0.459-0.114,0.975,0.287,1.032,0.804
		c-1.95,4.245-6.253,5.852-9.581,5.852c-3.041,0-5.852-0.976-7.86-2.926c-2.009-1.951-3.327-4.762-3.327-8.491
		c0-6.196,4.359-12.794,13.884-12.794C218.7,32.25,220.938,32.536,222.487,33.225z"/>
	<path fill="#004B8D" d="M236.827,43.781c0.861-0.287,0.976-0.803,0.976-1.664l0.058-2.639c0.057-2.123-0.631-4.991-4.188-4.991
		c-1.606,0-3.558,0.803-3.672,2.581c-0.058,0.918-0.114,1.607-0.573,1.951c-0.861,0.688-2.41,1.09-3.271,1.09
		c-0.516,0-0.803-0.287-0.803-0.803c0-2.983,6.483-7.057,10.672-7.057c4.131,0,6.139,2.409,5.967,6.712l-0.344,9.983
		c-0.115,2.639,0.4,4.991,2.639,4.991c0.574,0,1.09-0.172,1.434-0.345c0.287-0.172,0.574-0.401,0.746-0.401
		c0.23,0,0.402,0.345,0.402,0.746c0,0.287-2.008,2.524-4.82,2.524c-1.377,0-2.754-0.517-3.729-1.778
		c-0.23-0.345-0.574-0.804-0.918-0.804c-0.402,0-1.09,0.517-2.238,1.147c-1.262,0.688-2.523,1.435-4.131,1.435
		c-1.664,0-3.041-0.459-4.016-1.319c-1.09-0.976-1.779-2.41-1.779-4.017c0-2.237,1.091-3.557,4.763-4.877L236.827,43.781z
		 M233.271,53.879c1.146,0,2.926-0.86,3.5-1.434c0.688-0.689,0.688-1.492,0.746-2.697l0.113-3.385c0-0.631-0.229-0.746-0.572-0.746
		c-0.346,0-1.32,0.229-2.354,0.574c-3.385,1.147-5.049,2.008-5.049,4.245C229.655,51.412,230.345,53.879,233.271,53.879z"/>
</g>
</svg>
